<mxfile host="Electron" modified="2024-01-18T16:02:41.439Z" agent="Mozilla/5.0 (Windows NT 10.0; Win64; x64) AppleWebKit/537.36 (KHTML, like Gecko) draw.io/22.0.2 Chrome/114.0.5735.289 Electron/25.8.4 Safari/537.36" etag="_QiHbhVNLaU4xaBDaddE" version="22.0.2" type="device">
  <diagram name="Strona-1" id="3wGATHhH0_ccHBo_ECcI">
    <mxGraphModel dx="2363" dy="1367" grid="1" gridSize="10" guides="1" tooltips="1" connect="1" arrows="1" fold="1" page="1" pageScale="1" pageWidth="827" pageHeight="1169" math="0" shadow="0">
      <root>
        <mxCell id="0" />
        <mxCell id="1" parent="0" />
        <mxCell id="_KkNJ8bDlk7zTrpqRT8H-10" style="edgeStyle=orthogonalEdgeStyle;rounded=0;orthogonalLoop=1;jettySize=auto;html=1;exitX=0.5;exitY=1;exitDx=0;exitDy=0;exitPerimeter=0;entryX=0.5;entryY=0;entryDx=0;entryDy=0;" parent="1" source="_KkNJ8bDlk7zTrpqRT8H-1" target="_KkNJ8bDlk7zTrpqRT8H-2" edge="1">
          <mxGeometry relative="1" as="geometry" />
        </mxCell>
        <mxCell id="_KkNJ8bDlk7zTrpqRT8H-1" value="START" style="strokeWidth=2;html=1;shape=mxgraph.flowchart.start_1;whiteSpace=wrap;" parent="1" vertex="1">
          <mxGeometry x="275" y="10" width="100" height="60" as="geometry" />
        </mxCell>
        <mxCell id="_KkNJ8bDlk7zTrpqRT8H-9" style="edgeStyle=orthogonalEdgeStyle;rounded=0;orthogonalLoop=1;jettySize=auto;html=1;exitX=0.5;exitY=1;exitDx=0;exitDy=0;entryX=0.5;entryY=0;entryDx=0;entryDy=0;" parent="1" source="_KkNJ8bDlk7zTrpqRT8H-2" target="_KkNJ8bDlk7zTrpqRT8H-3" edge="1">
          <mxGeometry relative="1" as="geometry" />
        </mxCell>
        <mxCell id="_KkNJ8bDlk7zTrpqRT8H-2" value="system(&quot;CLS&quot;)" style="shape=process;whiteSpace=wrap;html=1;backgroundOutline=1;" parent="1" vertex="1">
          <mxGeometry x="265" y="100" width="120" height="60" as="geometry" />
        </mxCell>
        <mxCell id="_KkNJ8bDlk7zTrpqRT8H-8" style="edgeStyle=orthogonalEdgeStyle;rounded=0;orthogonalLoop=1;jettySize=auto;html=1;exitX=0.5;exitY=1;exitDx=0;exitDy=0;entryX=0.5;entryY=0;entryDx=0;entryDy=0;" parent="1" source="_KkNJ8bDlk7zTrpqRT8H-3" target="_KkNJ8bDlk7zTrpqRT8H-4" edge="1">
          <mxGeometry relative="1" as="geometry" />
        </mxCell>
        <mxCell id="_KkNJ8bDlk7zTrpqRT8H-3" value="&amp;nbsp;&quot;[MAIN|CREATION] \n\nWelcome to the User Creation Tool. This tool allows you to add a new person to the database.\nPlease enter the required information in the following format: [Email | FirstName | LastName | Address | Interests]&quot;" style="shape=parallelogram;perimeter=parallelogramPerimeter;whiteSpace=wrap;html=1;fixedSize=1;" parent="1" vertex="1">
          <mxGeometry y="180" width="650" height="100" as="geometry" />
        </mxCell>
        <mxCell id="_KkNJ8bDlk7zTrpqRT8H-6" style="edgeStyle=orthogonalEdgeStyle;rounded=0;orthogonalLoop=1;jettySize=auto;html=1;exitX=0.5;exitY=1;exitDx=0;exitDy=0;entryX=0.5;entryY=0;entryDx=0;entryDy=0;" parent="1" source="_KkNJ8bDlk7zTrpqRT8H-4" target="_KkNJ8bDlk7zTrpqRT8H-5" edge="1">
          <mxGeometry relative="1" as="geometry" />
        </mxCell>
        <mxCell id="_KkNJ8bDlk7zTrpqRT8H-4" value="bool addNewUser = true" style="rounded=0;whiteSpace=wrap;html=1;" parent="1" vertex="1">
          <mxGeometry x="250" y="300" width="150" height="60" as="geometry" />
        </mxCell>
        <mxCell id="_KkNJ8bDlk7zTrpqRT8H-12" style="edgeStyle=orthogonalEdgeStyle;rounded=0;orthogonalLoop=1;jettySize=auto;html=1;exitX=1;exitY=0.5;exitDx=0;exitDy=0;entryX=0.5;entryY=0;entryDx=0;entryDy=0;" parent="1" source="_KkNJ8bDlk7zTrpqRT8H-5" target="_KkNJ8bDlk7zTrpqRT8H-11" edge="1">
          <mxGeometry relative="1" as="geometry" />
        </mxCell>
        <mxCell id="_KkNJ8bDlk7zTrpqRT8H-39" value="FALSE" style="edgeLabel;html=1;align=center;verticalAlign=middle;resizable=0;points=[];" parent="_KkNJ8bDlk7zTrpqRT8H-12" vertex="1" connectable="0">
          <mxGeometry x="-0.747" relative="1" as="geometry">
            <mxPoint x="-11" y="-11" as="offset" />
          </mxGeometry>
        </mxCell>
        <mxCell id="_KkNJ8bDlk7zTrpqRT8H-26" style="edgeStyle=orthogonalEdgeStyle;rounded=0;orthogonalLoop=1;jettySize=auto;html=1;exitX=0.5;exitY=1;exitDx=0;exitDy=0;entryX=0.5;entryY=0;entryDx=0;entryDy=0;" parent="1" source="_KkNJ8bDlk7zTrpqRT8H-5" target="_KkNJ8bDlk7zTrpqRT8H-13" edge="1">
          <mxGeometry relative="1" as="geometry" />
        </mxCell>
        <mxCell id="_KkNJ8bDlk7zTrpqRT8H-40" value="TRUE" style="edgeLabel;html=1;align=center;verticalAlign=middle;resizable=0;points=[];" parent="_KkNJ8bDlk7zTrpqRT8H-26" vertex="1" connectable="0">
          <mxGeometry x="-0.0644" relative="1" as="geometry">
            <mxPoint x="16" y="-7" as="offset" />
          </mxGeometry>
        </mxCell>
        <mxCell id="_KkNJ8bDlk7zTrpqRT8H-5" value="addNewUser" style="rhombus;whiteSpace=wrap;html=1;" parent="1" vertex="1">
          <mxGeometry x="250" y="390" width="146" height="130" as="geometry" />
        </mxCell>
        <mxCell id="_KkNJ8bDlk7zTrpqRT8H-11" value="END" style="ellipse;whiteSpace=wrap;html=1;" parent="1" vertex="1">
          <mxGeometry x="520" y="485" width="120" height="80" as="geometry" />
        </mxCell>
        <mxCell id="_KkNJ8bDlk7zTrpqRT8H-27" style="edgeStyle=orthogonalEdgeStyle;rounded=0;orthogonalLoop=1;jettySize=auto;html=1;exitX=0.5;exitY=1;exitDx=0;exitDy=0;entryX=0.5;entryY=0;entryDx=0;entryDy=0;" parent="1" source="_KkNJ8bDlk7zTrpqRT8H-13" target="_KkNJ8bDlk7zTrpqRT8H-14" edge="1">
          <mxGeometry relative="1" as="geometry" />
        </mxCell>
        <mxCell id="_KkNJ8bDlk7zTrpqRT8H-13" value="inputUserData(email, firstName, lastName, address, interestInput, interests, addNewUser)" style="shape=process;whiteSpace=wrap;html=1;backgroundOutline=1;" parent="1" vertex="1">
          <mxGeometry x="205.38" y="550" width="235.25" height="60" as="geometry" />
        </mxCell>
        <mxCell id="_KkNJ8bDlk7zTrpqRT8H-28" style="edgeStyle=orthogonalEdgeStyle;rounded=0;orthogonalLoop=1;jettySize=auto;html=1;exitX=0.5;exitY=1;exitDx=0;exitDy=0;entryX=0.5;entryY=0;entryDx=0;entryDy=0;" parent="1" source="_KkNJ8bDlk7zTrpqRT8H-14" target="_KkNJ8bDlk7zTrpqRT8H-15" edge="1">
          <mxGeometry relative="1" as="geometry" />
        </mxCell>
        <mxCell id="_KkNJ8bDlk7zTrpqRT8H-14" value="toLowerCase(email)" style="shape=process;whiteSpace=wrap;html=1;backgroundOutline=1;" parent="1" vertex="1">
          <mxGeometry x="251.5" y="630" width="147" height="60" as="geometry" />
        </mxCell>
        <mxCell id="_KkNJ8bDlk7zTrpqRT8H-19" style="edgeStyle=orthogonalEdgeStyle;rounded=0;orthogonalLoop=1;jettySize=auto;html=1;exitX=1;exitY=0.5;exitDx=0;exitDy=0;entryX=0.5;entryY=0;entryDx=0;entryDy=0;" parent="1" source="_KkNJ8bDlk7zTrpqRT8H-15" target="_KkNJ8bDlk7zTrpqRT8H-18" edge="1">
          <mxGeometry relative="1" as="geometry" />
        </mxCell>
        <mxCell id="_KkNJ8bDlk7zTrpqRT8H-35" value="FALSE" style="edgeLabel;html=1;align=center;verticalAlign=middle;resizable=0;points=[];" parent="_KkNJ8bDlk7zTrpqRT8H-19" vertex="1" connectable="0">
          <mxGeometry x="-0.7304" relative="1" as="geometry">
            <mxPoint x="8" y="-10" as="offset" />
          </mxGeometry>
        </mxCell>
        <mxCell id="qzJhU0d-qozmy6SztV7i-1" style="edgeStyle=orthogonalEdgeStyle;rounded=0;orthogonalLoop=1;jettySize=auto;html=1;exitX=0.5;exitY=1;exitDx=0;exitDy=0;" edge="1" parent="1" source="_KkNJ8bDlk7zTrpqRT8H-15">
          <mxGeometry relative="1" as="geometry">
            <mxPoint x="173" y="930" as="targetPoint" />
            <Array as="points">
              <mxPoint x="323" y="930" />
              <mxPoint x="173" y="930" />
            </Array>
          </mxGeometry>
        </mxCell>
        <mxCell id="qzJhU0d-qozmy6SztV7i-2" value="TRUE" style="edgeLabel;html=1;align=center;verticalAlign=middle;resizable=0;points=[];" vertex="1" connectable="0" parent="qzJhU0d-qozmy6SztV7i-1">
          <mxGeometry x="-0.9052" relative="1" as="geometry">
            <mxPoint x="16" y="-3" as="offset" />
          </mxGeometry>
        </mxCell>
        <mxCell id="_KkNJ8bDlk7zTrpqRT8H-15" value="!addNewUser" style="rhombus;whiteSpace=wrap;html=1;" parent="1" vertex="1">
          <mxGeometry x="263.75" y="710" width="118.5" height="100" as="geometry" />
        </mxCell>
        <mxCell id="l4YSv0-gC36JF3NaYEgj-1" style="edgeStyle=orthogonalEdgeStyle;rounded=0;orthogonalLoop=1;jettySize=auto;html=1;exitX=1;exitY=0.5;exitDx=0;exitDy=0;entryX=0;entryY=0.5;entryDx=0;entryDy=0;" parent="1" source="_KkNJ8bDlk7zTrpqRT8H-18" target="_KkNJ8bDlk7zTrpqRT8H-22" edge="1">
          <mxGeometry relative="1" as="geometry" />
        </mxCell>
        <mxCell id="l4YSv0-gC36JF3NaYEgj-2" value="FALSE" style="edgeLabel;html=1;align=center;verticalAlign=middle;resizable=0;points=[];" parent="l4YSv0-gC36JF3NaYEgj-1" vertex="1" connectable="0">
          <mxGeometry x="-0.4182" y="-1" relative="1" as="geometry">
            <mxPoint x="-6" y="-10" as="offset" />
          </mxGeometry>
        </mxCell>
        <mxCell id="Xbmf6cdT-l6geD3ap-lV-1" style="edgeStyle=orthogonalEdgeStyle;rounded=0;orthogonalLoop=1;jettySize=auto;html=1;exitX=0.5;exitY=1;exitDx=0;exitDy=0;entryX=0.5;entryY=0;entryDx=0;entryDy=0;" parent="1" source="_KkNJ8bDlk7zTrpqRT8H-18" target="_KkNJ8bDlk7zTrpqRT8H-20" edge="1">
          <mxGeometry relative="1" as="geometry" />
        </mxCell>
        <mxCell id="Xbmf6cdT-l6geD3ap-lV-2" value="TRUE" style="edgeLabel;html=1;align=center;verticalAlign=middle;resizable=0;points=[];" parent="Xbmf6cdT-l6geD3ap-lV-1" vertex="1" connectable="0">
          <mxGeometry x="-0.4" y="-5" relative="1" as="geometry">
            <mxPoint x="22" y="-9" as="offset" />
          </mxGeometry>
        </mxCell>
        <mxCell id="_KkNJ8bDlk7zTrpqRT8H-18" value="findUserByEmail(email)" style="rhombus;whiteSpace=wrap;html=1;" parent="1" vertex="1">
          <mxGeometry x="344.5" y="790" width="155" height="140" as="geometry" />
        </mxCell>
        <mxCell id="Xbmf6cdT-l6geD3ap-lV-3" style="edgeStyle=orthogonalEdgeStyle;rounded=0;orthogonalLoop=1;jettySize=auto;html=1;exitX=0.5;exitY=1;exitDx=0;exitDy=0;endArrow=classic;endFill=1;" parent="1" source="_KkNJ8bDlk7zTrpqRT8H-20" edge="1">
          <mxGeometry relative="1" as="geometry">
            <mxPoint x="422" y="1200" as="targetPoint" />
          </mxGeometry>
        </mxCell>
        <mxCell id="_KkNJ8bDlk7zTrpqRT8H-20" value="&quot;####################\nError: This email already exists in the database! Please provide a unique email.\n####################&quot;" style="shape=parallelogram;perimeter=parallelogramPerimeter;whiteSpace=wrap;html=1;fixedSize=1;" parent="1" vertex="1">
          <mxGeometry x="282" y="980" width="280" height="90" as="geometry" />
        </mxCell>
        <mxCell id="_KkNJ8bDlk7zTrpqRT8H-25" style="edgeStyle=orthogonalEdgeStyle;rounded=0;orthogonalLoop=1;jettySize=auto;html=1;exitX=0.5;exitY=1;exitDx=0;exitDy=0;entryX=0.5;entryY=0;entryDx=0;entryDy=0;" parent="1" source="_KkNJ8bDlk7zTrpqRT8H-22" target="_KkNJ8bDlk7zTrpqRT8H-24" edge="1">
          <mxGeometry relative="1" as="geometry" />
        </mxCell>
        <mxCell id="_KkNJ8bDlk7zTrpqRT8H-22" value="addUser(email, firstName, lastName, address, interests)" style="shape=process;whiteSpace=wrap;html=1;backgroundOutline=1;" parent="1" vertex="1">
          <mxGeometry x="572" y="830" width="180" height="60" as="geometry" />
        </mxCell>
        <mxCell id="_KkNJ8bDlk7zTrpqRT8H-38" style="edgeStyle=orthogonalEdgeStyle;rounded=0;orthogonalLoop=1;jettySize=auto;html=1;exitX=0.5;exitY=1;exitDx=0;exitDy=0;endArrow=classic;endFill=1;" parent="1" edge="1">
          <mxGeometry relative="1" as="geometry">
            <mxPoint x="323" y="370" as="targetPoint" />
            <mxPoint x="665" y="1180" as="sourcePoint" />
            <Array as="points">
              <mxPoint x="665" y="1200" />
              <mxPoint x="173" y="1200" />
            </Array>
          </mxGeometry>
        </mxCell>
        <mxCell id="_KkNJ8bDlk7zTrpqRT8H-24" value="&quot;####################\nSuccess: User added to the database successfully.\n####################&quot;" style="shape=parallelogram;perimeter=parallelogramPerimeter;whiteSpace=wrap;html=1;fixedSize=1;" parent="1" vertex="1">
          <mxGeometry x="497" y="1090" width="330" height="90" as="geometry" />
        </mxCell>
      </root>
    </mxGraphModel>
  </diagram>
</mxfile>
